<mxfile host="app.diagrams.net" modified="2024-03-07T09:50:56.651Z" agent="Mozilla/5.0 (Macintosh; Intel Mac OS X 10_15_7) AppleWebKit/537.36 (KHTML, like Gecko) Chrome/122.0.0.0 Safari/537.36" etag="RcYqZ4mM8LbM8ZoWj2Jh" version="24.0.1" type="github">
  <diagram name="Page-1" id="mPOPt31Mi52i3PiwWG-t">
    <mxGraphModel dx="724" dy="443" grid="1" gridSize="10" guides="1" tooltips="1" connect="1" arrows="1" fold="1" page="1" pageScale="1" pageWidth="827" pageHeight="1169" math="0" shadow="0">
      <root>
        <mxCell id="0" />
        <mxCell id="1" parent="0" />
        <mxCell id="IbDzuqNWrI75oZn9wBNK-20" value="" style="rounded=0;whiteSpace=wrap;html=1;" parent="1" vertex="1">
          <mxGeometry x="20" y="60" width="340" height="860" as="geometry" />
        </mxCell>
        <mxCell id="IbDzuqNWrI75oZn9wBNK-7" value="" style="rounded=0;whiteSpace=wrap;html=1;" parent="1" vertex="1">
          <mxGeometry x="40" y="80" width="280" height="240" as="geometry" />
        </mxCell>
        <mxCell id="IbDzuqNWrI75oZn9wBNK-1" value="&lt;b&gt;Product&lt;/b&gt;&lt;br&gt;Proxy Payment 1" style="rounded=0;whiteSpace=wrap;html=1;" parent="1" vertex="1">
          <mxGeometry x="80" y="100" width="120" height="60" as="geometry" />
        </mxCell>
        <mxCell id="IbDzuqNWrI75oZn9wBNK-2" value="&lt;b&gt;Product&lt;/b&gt;&lt;div&gt;Proxy Payment 2&lt;/div&gt;" style="rounded=0;whiteSpace=wrap;html=1;" parent="1" vertex="1">
          <mxGeometry x="80" y="170" width="120" height="60" as="geometry" />
        </mxCell>
        <mxCell id="IbDzuqNWrI75oZn9wBNK-4" value="&lt;b&gt;Product&lt;/b&gt;&lt;div&gt;Proxy Payment 5&lt;/div&gt;" style="rounded=0;whiteSpace=wrap;html=1;" parent="1" vertex="1">
          <mxGeometry x="80" y="240" width="120" height="60" as="geometry" />
        </mxCell>
        <mxCell id="IbDzuqNWrI75oZn9wBNK-9" value="&lt;b&gt;Ref Page&lt;/b&gt;&lt;br&gt;API Payment 1" style="text;html=1;align=center;verticalAlign=middle;whiteSpace=wrap;rounded=0;" parent="1" vertex="1">
          <mxGeometry x="240" y="280" width="60" height="30" as="geometry" />
        </mxCell>
        <mxCell id="IbDzuqNWrI75oZn9wBNK-10" value="" style="rounded=0;whiteSpace=wrap;html=1;" parent="1" vertex="1">
          <mxGeometry x="40" y="360" width="280" height="240" as="geometry" />
        </mxCell>
        <mxCell id="IbDzuqNWrI75oZn9wBNK-11" value="Proxy Payment 1" style="rounded=0;whiteSpace=wrap;html=1;" parent="1" vertex="1">
          <mxGeometry x="80" y="380" width="120" height="60" as="geometry" />
        </mxCell>
        <mxCell id="IbDzuqNWrI75oZn9wBNK-12" value="Proxy Payment 2" style="rounded=0;whiteSpace=wrap;html=1;" parent="1" vertex="1">
          <mxGeometry x="80" y="450" width="120" height="60" as="geometry" />
        </mxCell>
        <mxCell id="IbDzuqNWrI75oZn9wBNK-13" value="Proxy Payment 5" style="rounded=0;whiteSpace=wrap;html=1;" parent="1" vertex="1">
          <mxGeometry x="80" y="520" width="120" height="60" as="geometry" />
        </mxCell>
        <mxCell id="IbDzuqNWrI75oZn9wBNK-14" value="API Payment 1" style="text;html=1;align=center;verticalAlign=middle;whiteSpace=wrap;rounded=0;" parent="1" vertex="1">
          <mxGeometry x="240" y="560" width="60" height="30" as="geometry" />
        </mxCell>
        <mxCell id="IbDzuqNWrI75oZn9wBNK-15" value="" style="rounded=0;whiteSpace=wrap;html=1;" parent="1" vertex="1">
          <mxGeometry x="40" y="640" width="280" height="240" as="geometry" />
        </mxCell>
        <mxCell id="IbDzuqNWrI75oZn9wBNK-16" value="Proxy Payment 1" style="rounded=0;whiteSpace=wrap;html=1;" parent="1" vertex="1">
          <mxGeometry x="80" y="660" width="120" height="60" as="geometry" />
        </mxCell>
        <mxCell id="IbDzuqNWrI75oZn9wBNK-17" value="Proxy Payment 2" style="rounded=0;whiteSpace=wrap;html=1;" parent="1" vertex="1">
          <mxGeometry x="80" y="730" width="120" height="60" as="geometry" />
        </mxCell>
        <mxCell id="IbDzuqNWrI75oZn9wBNK-18" value="Proxy Payment 5" style="rounded=0;whiteSpace=wrap;html=1;" parent="1" vertex="1">
          <mxGeometry x="80" y="800" width="120" height="60" as="geometry" />
        </mxCell>
        <mxCell id="IbDzuqNWrI75oZn9wBNK-19" value="API Payment 1" style="text;html=1;align=center;verticalAlign=middle;whiteSpace=wrap;rounded=0;" parent="1" vertex="1">
          <mxGeometry x="240" y="840" width="60" height="30" as="geometry" />
        </mxCell>
        <mxCell id="IbDzuqNWrI75oZn9wBNK-21" value="Application Payment" style="text;html=1;align=center;verticalAlign=middle;whiteSpace=wrap;rounded=0;" parent="1" vertex="1">
          <mxGeometry x="290" y="890" width="60" height="30" as="geometry" />
        </mxCell>
        <mxCell id="IbDzuqNWrI75oZn9wBNK-22" value="&lt;h1&gt;Lien Nexus&lt;/h1&gt;&lt;p&gt;https://nexus.softfactory-accor.net/repository/maven-snapshots-ecom/com/accor/ecom/availability/offers-api-rest/0.0.6-SNAPSHOT/offers-api-rest-0.0.6-20230904.121101-1.jar&lt;/p&gt;&lt;p&gt;&lt;br&gt;&lt;/p&gt;&lt;p&gt;&lt;br&gt;&lt;/p&gt;" style="text;html=1;spacing=5;spacingTop=-20;whiteSpace=wrap;overflow=hidden;rounded=0;" parent="1" vertex="1">
          <mxGeometry x="390" y="100" width="520" height="120" as="geometry" />
        </mxCell>
        <mxCell id="IbDzuqNWrI75oZn9wBNK-23" value="&lt;h1&gt;Nom du swagger&lt;/h1&gt;&lt;p&gt;API_Payment_1.yml&lt;/p&gt;&lt;p&gt;&lt;br&gt;&lt;/p&gt;" style="text;html=1;spacing=5;spacingTop=-20;whiteSpace=wrap;overflow=hidden;rounded=0;" parent="1" vertex="1">
          <mxGeometry x="390" y="220" width="520" height="120" as="geometry" />
        </mxCell>
      </root>
    </mxGraphModel>
  </diagram>
</mxfile>
